<svg width="32" height="33" viewBox="0 0 32 33" fill="none" xmlns="http://www.w3.org/2000/svg">
<path d="M16 0.124023C7.1625 0.124023 0 7.28652 0 16.124C0 24.9615 7.1625 32.124 16 32.124C24.8375 32.124 32 24.9615 32 16.124C32 7.28652 24.8375 0.124023 16 0.124023ZM16 8.12402C17.1044 8.12402 18 9.01965 18 10.124C18 11.2284 17.1044 12.124 16 12.124C14.8956 12.124 14 11.2303 14 10.124C14 9.01777 14.8938 8.12402 16 8.12402ZM18.5 24.124H13.5C12.675 24.124 12 23.4553 12 22.624C12 21.7928 12.6719 21.124 13.5 21.124H14.5V17.124H14C13.1719 17.124 12.5 16.4521 12.5 15.624C12.5 14.7959 13.175 14.124 14 14.124H16C16.8281 14.124 17.5 14.7959 17.5 15.624V21.124H18.5C19.3281 21.124 20 21.7959 20 22.624C20 23.4521 19.3312 24.124 18.5 24.124Z" fill="currentColor"/>
</svg>
