<svg width="32" height="27" viewBox="0 0 32 27" fill="none" xmlns="http://www.w3.org/2000/svg">
<g clip-path="url(#clip0_631_648)">
<path d="M10.3998 11.4545C9.80485 11.4545 9.39985 11.8687 9.39985 12.4773C9.39985 13.0418 9.8476 13.5 10.3998 13.5C10.9521 13.5 11.3998 13.0421 11.3998 12.4773C11.3998 11.8687 10.9498 11.4545 10.3998 11.4545ZM11.2298 4.09091H9.40985C8.18985 4.09091 7.19985 5.10545 7.19985 6.35114C7.19985 6.80339 7.55765 7.16932 7.99985 7.16932C8.44205 7.16932 8.79985 6.80339 8.79985 6.35114C8.79985 6.00852 9.07485 5.72727 9.40985 5.72727H11.2278C11.6548 5.72727 11.9998 6.08011 11.9998 6.51477C11.9998 6.8152 11.8365 7.08545 11.5631 7.22506L10.0298 8.03864C9.76485 8.1358 9.59985 8.45795 9.59985 8.76477V9.81818C9.59985 10.2704 9.95765 10.6364 10.3998 10.6364C10.842 10.6364 11.1998 10.2682 11.1998 9.81818V9.2608L12.2888 8.68244C13.0548 8.27386 13.5998 7.44034 13.5998 6.51477C13.5998 5.18011 12.5348 4.09091 11.2298 4.09091ZM20.7998 9C20.7998 4.02955 16.1448 0 10.3998 0C4.65485 0 -0.000150025 4.02955 -0.000150025 9C-0.000150025 11.1211 0.85335 13.0674 2.27185 14.6045C1.51335 16.2583 0.33935 17.574 0.32435 17.5899C-0.00135005 17.9395 -0.0911 18.4546 0.09595 18.9026C0.28755 19.35 0.71285 19.6364 1.18285 19.6364C3.89235 19.6364 6.07085 18.5763 7.47785 17.6334C8.40485 17.867 9.38485 18 10.3998 18C16.1448 18 20.7998 13.9705 20.7998 9ZM10.3998 16.3636C9.55185 16.3636 8.69785 16.2564 7.86235 16.045L7.18485 15.8727L6.59985 16.2665C5.57835 16.9507 4.02085 17.7489 2.10735 17.9524C2.5762 17.3332 3.22235 16.3861 3.71935 15.3026L4.18145 14.2947L3.43585 13.4847C2.23485 12.1807 1.59985 10.6313 1.59985 9C1.59985 4.93977 5.50485 1.63636 10.3998 1.63636C15.2948 1.63636 19.1999 4.93977 19.1999 9C19.1999 13.0602 15.2498 16.3636 10.3998 16.3636ZM30.3198 22.2648C31.3799 20.8176 31.9998 19.0688 31.9998 17.1818C31.9998 12.2114 27.6998 8.18182 22.3998 8.18182C22.3841 8.18182 22.3689 8.18392 22.3532 8.18402C22.3748 8.45284 22.3998 8.72386 22.3998 9C22.3998 9.27767 22.3765 9.55023 22.3528 9.82278C22.3698 9.8233 22.3848 9.81818 22.3998 9.81818C26.8108 9.81818 30.3998 13.1216 30.3998 17.1818C30.3998 18.6489 29.9286 20.0685 29.0373 21.286L28.3833 22.1794L28.9578 23.128C29.2862 23.6705 29.6168 24.1374 29.8883 24.4953C28.9753 24.3977 28.0658 24.1566 27.1733 23.7748L26.5389 23.5036L25.9098 23.7877C24.7948 24.2898 23.6148 24.5455 22.3998 24.5455C18.6473 24.5455 15.5148 22.1466 14.6549 18.9358C14.1498 19.1064 13.6298 19.2494 13.0948 19.3587C14.1348 23.2722 17.8548 26.1818 22.3998 26.1818C23.8908 26.1818 25.2968 25.8538 26.5558 25.2849C27.7498 25.7983 29.1848 26.1818 30.8148 26.1818C31.2847 26.1818 31.7104 25.897 31.9014 25.4495C32.0883 25.0017 31.9986 24.4861 31.6729 24.1369C31.6648 24.1261 30.9799 23.3591 30.3198 22.2648ZM19.4349 17.2841C19.1224 17.6037 19.1224 18.1217 19.4349 18.4408L21.2998 20.3523C21.4499 20.5057 21.6529 20.592 21.8653 20.592C22.0777 20.592 22.2799 20.5057 22.4298 20.3523L26.5634 16.1238C26.8759 15.8042 26.8759 15.2862 26.5634 14.9671C26.2509 14.648 25.7443 14.6475 25.4323 14.9671L21.8643 18.6172L20.5633 17.2861C20.2548 16.967 19.7449 16.967 19.4349 17.2841Z" fill="currentColor"/>
</g>
<defs>
<clipPath id="clip0_631_648">
<rect width="32" height="26.1818" fill="currentColor"/>
</clipPath>
</defs>
</svg>
