<svg width="32" height="32" viewBox="0 0 32 32" fill="none" xmlns="http://www.w3.org/2000/svg">
<path d="M22 16C22 17.3875 21.925 18.725 21.7938 20H10.2063C10.075 18.725 9.94375 17.3875 9.94375 16C9.94375 14.6125 10.075 13.275 10.2063 12H21.7938C21.925 13.275 22 14.6125 22 16ZM31.4937 12C31.825 13.2812 32 14.6187 32 16C32 17.3813 31.825 18.7188 31.4937 20H23.8C23.9312 18.7125 24 17.3188 24 16C24 14.625 23.9312 13.2875 23.8 12H31.4937ZM30.8375 10H23.5438C22.9188 6.00875 21.6812 2.66375 20.0875 0.527625C24.9875 1.81813 28.9625 5.37125 30.8375 10ZM21.5187 10H10.4812C10.8625 7.725 11.45 5.71125 12.1687 4.08437C12.825 2.60875 13.5562 1.53813 14.2625 0.863125C14.9625 0.198625 15.5437 0 16 0C16.4562 0 17.0375 0.198625 17.7375 0.863125C18.4437 1.53813 19.175 2.60875 19.8312 4.08437C20.55 5.71125 21.1375 7.725 21.5187 10ZM1.16313 10C3.03688 5.37125 7.0125 1.81813 11.9125 0.527625C10.3188 2.66375 9.08125 6.00875 8.45625 10H1.16313ZM8.2 12C8.06875 13.2875 7.94375 14.625 7.94375 16C7.94375 17.3188 8.06875 18.7125 8.2 20H0.504062C0.175 18.7188 0 17.3813 0 16C0 14.6187 0.175 13.2812 0.504062 12H8.2ZM12.1687 27.9125C11.45 26.2875 10.8625 24.275 10.4812 22H21.5187C21.1375 24.275 20.55 26.2875 19.8312 27.9125C19.175 29.3938 18.4437 30.4625 17.7375 31.1375C17.0375 31.8 16.4563 32 15.9438 32C15.5438 32 14.9625 31.8 14.2625 31.1375C13.5562 30.4625 12.825 29.3938 12.1687 27.9125ZM11.9125 31.475C7.0125 30.1812 3.03688 26.6313 1.16313 22H8.45625C9.08125 25.9937 10.3188 29.3375 11.9125 31.475ZM20.0875 31.475C21.6812 29.3375 22.9188 25.9937 23.5438 22H30.8375C28.9625 26.6313 24.9875 30.1812 20.0875 31.475Z" fill="currentColor"/>
</svg>
