<svg width="32" height="29" viewBox="0 0 32 29" fill="none" xmlns="http://www.w3.org/2000/svg">
<path d="M31.9902 14.0901C31.9902 15.0827 31.1568 15.8603 30.2124 15.8603H28.4345L28.4734 24.6893C28.4734 24.8438 28.4623 24.9871 28.4456 25.136V26.0294C28.4456 27.2482 27.4511 28.2353 26.2233 28.2353H25.3344C25.2733 28.2353 25.2122 28.1857 25.151 28.2298C25.0733 28.1857 24.9955 28.2353 24.9177 28.2353H21.7787C20.5509 28.2353 19.5564 27.2482 19.5564 26.0294V21.1765C19.5564 20.2004 18.7619 19.4118 17.7785 19.4118H14.2228C13.2394 19.4118 12.445 20.2004 12.445 21.1765V26.0294C12.445 27.2482 11.4505 28.2353 10.2226 28.2353H7.11696C7.03363 28.2353 6.95029 28.2298 6.86695 28.2243C6.80028 28.2298 6.73361 28.2353 6.66694 28.2353H5.77802C4.55074 28.2353 3.5557 27.2482 3.5557 26.0294V19.8529C3.5557 19.8033 3.55737 19.7482 3.5607 19.6985V15.8603H1.78063C0.778921 15.8603 0 15.0827 0 14.0901C0 13.5938 0.166896 13.1526 0.556134 12.7665L14.8006 0.442059C15.1895 0.0552573 15.634 0 16.0229 0C16.4118 0 16.8563 0.110515 17.1952 0.386801L31.3791 12.7665C31.8235 13.1526 32.0513 13.5938 31.9902 14.0901Z" fill="currentColor"/>
</svg>
